<?xml version="1.0" encoding="utf-8"?>
<!-- Generator: Adobe Illustrator 27.5.0, SVG Export Plug-In . SVG Version: 6.00 Build 0)  -->
<svg version="1.1" id="Layer_1" xmlns="http://www.w3.org/2000/svg" xmlns:xlink="http://www.w3.org/1999/xlink" x="0px" y="0px"
	 viewBox="0 0 465 121" style="enable-background:new 0 0 465 121;" xml:space="preserve">
<style type="text/css">
	.st0{fill:#F7931E;}
</style>
<path class="st0" d="M458,6.4c-10.9,20.1-27.2,37.6-47.8,48c-4.8,2.4-9.7,4.4-14.8,5.9c-5.9,1.7-12,2.8-18.2,2.2
	c-5.8-0.6-11.4-2.9-15.5-7c-0.2-0.2-0.4-0.4-0.6-0.6c2.4-1.4,4.6-3,6.7-5c4.4-4.2,7.8-9.7,8.4-15.8c0.6-5.2-0.7-11.5-5.2-14.7
	c-3.9-2.8-8.9-1.8-12.6,0.9c-4.3,3.2-6.5,8.1-7,13.4c-0.7,7.1,1.6,14.7,6.1,20.6c-7.5,3.7-16.1,5-24.5,5c-7.4,0-14.8-0.7-22.2-0.9
	c-6.3-0.1-12.7,0.3-19,0.4c-11.2,0.2-23,0.8-32.8,6.7c-6.8,4-10.9,10.7-14.6,17.4c-0.9,1.7-1.8,3.3-2.6,5c0,0.1-0.1,0.1-0.1,0.1
	c-5,10.4-10.4,15.7-16.2,15.7c-2,0-3.7-0.5-5-1.6c-1.3-1-2.4-2.3-3.3-3.9s-1.7-3.2-2.4-4.9c-1-2.2-2-4.2-3.1-6s-2.7-2.7-4.9-2.7
	c-1.6,0-3.3,0.8-4.9,2.4c-1.7,1.6-3.3,3.5-5.1,5.6c-1.5,1.9-3.1,3.7-4.8,5.5c-1.7,1.9-3.6,3.4-5.6,4.6s-4.2,1.8-6.5,1.8
	c-2.1,0-3.8-0.7-5.1-2.2c-1.2-1.4-1.8-3.5-1.8-6.2c0-3.1,0.6-6,1.9-8.8c1.3-2.7,2.9-5.1,4.9-7.2c2-2,4.3-3.6,6.9-4.8
	c2.6-1.2,5.1-1.8,7.6-1.8c2.4,0,4.2,0.4,5.5,1.3s2.4,1.8,3.3,2.7c1,1.2,2,1.8,2.8,1.8s1.6-0.4,2.4-1.2c0.8-0.8,1.2-1.6,1.2-2.4
	c0-0.7-0.5-1.5-1.6-2.4c-1-1-2.5-1.8-4.3-2.6c-1.9-0.7-4-1.1-6.4-1.1c-3.4,0-6.9,0.8-10.4,2.4s-6.7,3.8-9.6,6.6
	c-2.9,2.8-5.2,5.9-6.9,9.4l0,0c-2.5,5.2-5.6,9.5-9.2,12.8c-3.6,3.4-8.2,5.1-13.9,5.1c-5.4,0-9.9-2.5-13.4-7.4
	c-3.6-5-5.3-12.8-5.3-23.5c0-3,0.1-5.9,0.4-8.5c0.3-2.6,0.6-5.1,0.9-7.3c3.6,0.4,7,0.8,10.4,1.1c3.4,0.3,6.5,0.4,9.3,0.4
	c3.9,0,7-0.3,9.2-0.9s3.7-1.3,4.6-2.2c0.9-0.8,1.3-1.5,1.3-2c0-0.6-0.5-0.9-1.4-0.9c-0.4,0-0.8,0-1.4,0.1s-1.2,0.2-1.9,0.3
	c-1.3,0.3-2.9,0.5-4.7,0.7c-1.8,0.1-3.8,0.2-6.1,0.2c-3.4,0-6.6-0.1-9.7-0.4s-5.9-0.6-8.6-0.9c0.7-2.8,1.5-5.2,2.2-7.3
	c0.7-2,1.4-3.7,2-5.1c0.8-1.8,1.2-2.9,1.2-3.3c0-0.5-0.4-0.8-1.2-0.8c-1.4,0-2.6,0.5-3.6,1.4s-1.8,2.5-2.6,4.8s-1.6,5.4-2.5,9.5
	c-2.2-0.4-4.3-0.9-6.1-1.3c-1.9-0.4-3.4-0.8-4.8-1.2c-2.4-0.7-3.9-1-4.7-1c-1.1,0-2.1,0.4-2.8,1.1c-0.8,0.7-1.2,1.4-1.2,1.9
	s0.4,1,1.1,1.3c0.7,0.4,2.6,0.9,5.7,1.7c3.7,0.8,7.6,1.6,11.8,2.2c-0.8,2.1-1.9,4.8-3.2,8.1c-1.3,3.3-2.7,6.8-4.3,10.5
	s-3.3,7.4-5.1,10.9c-1.7,3.4-3.8,6.5-6.3,9.4s-5.3,5.2-8.5,6.9c-3.2,1.7-6.7,2.6-10.5,2.6c-5,0-9-1.9-12-5.8
	c-3-3.8-5.2-8.9-6.5-15.2c2.1-3.6,4.4-7.7,6.9-12.1c2.4-4.4,4.7-8.9,6.9-13.4c2.1-4.5,3.9-8.7,5.3-12.8c1.4-4,2.1-7.5,2.1-10.5
	c0-7.3-2.4-11-7.3-11c-3.3,0-6.5,1.7-9.8,5.1c-3.3,3.4-6,8.3-8.2,14.8s-3.2,14.2-3.2,23.3c0,6.9,0.6,13,1.8,18.4
	c0,0.1-0.1,0.1-0.1,0.2c-3.4,7-7.5,12.6-12.4,16.6c-4.8,4.1-11.2,6.1-19,6.1c-5.2,0-9.2-1.3-12.2-4c-2.9-2.7-4.4-6.4-4.4-11.3
	c0-3.6,0.9-7,2.7-10c1.8-3.1,4.2-5.5,7.2-7.4s6.3-2.8,9.9-2.8c2.4,0,4.2,0.6,5.6,1.8c1.4,1.2,2.1,2.7,2.1,4.6c0,2.7-1.1,4.9-3.2,6.4
	c-2.1,1.5-5,2.3-8.4,2.3c-1.9,0-3.4-0.1-4.5-0.4s-2-0.7-2.8-1.2c-1-0.6-1.9-0.9-2.7-0.9c-0.6,0-1.2,0.3-1.8,0.8
	c-0.6,0.6-0.9,1.2-0.9,1.8c0,0.8,0.9,1.6,2.7,2.2c1.8,0.7,4,1,6.8,1c3.7,0,7.1-0.5,10.2-1.6c3.1-1.1,5.6-2.6,7.5-4.6s2.8-4.3,2.8-7
	c0-2.5-1-4.6-2.9-6.2s-4.7-2.4-8.4-2.4c-4.6,0-8.9,1.3-12.9,4s-7.7,6.8-10.9,12.4c-0.8,1.4-1.4,3-1.9,4.8c-0.4,1.8-0.7,3.6-0.7,5.3
	c0,5.5,1.9,9.8,5.6,12.7c3.7,2.9,8.7,4.3,14.9,4.3c5.8,0,10.7-1.1,14.9-3.3c4.1-2.2,7.8-5.2,10.9-9.1c2.7-3.4,5.2-7.3,7.5-11.7
	c0.1,0.5,0.3,1,0.4,1.4c2,6.4,4.8,11.3,8.5,14.7s8,5.1,12.9,5.1c6.4,0,11.9-2.1,16.6-6.4c4.7-4.3,8.8-9.9,12.2-16.8
	c2.4-4.9,4.3-9,5.7-12.5c1.4-3.4,2.6-6.5,3.4-9c-0.1,1.3-0.1,2.6-0.2,4.1c0,1.5-0.1,2.6-0.1,3.4c0,11.2,1.8,19.9,5.4,26.1
	c3.6,6.2,8.9,9.3,16,9.3c6.4,0,11.7-1.8,15.9-5.5c2.5-2.2,4.8-4.9,7-8.2c0,0.5-0.1,1-0.1,1.5c0,3.8,1,6.6,2.9,8.2
	c2,1.6,4.2,2.4,6.8,2.4c3,0,5.8-0.7,8.3-2.1s4.7-3.1,6.6-5.2s3.6-4.1,5.1-6.1c1.3-1.7,2.5-3.1,3.6-4.3c1.1-1.1,2.2-1.7,3.2-1.7
	c1.2,0,2.2,0.7,2.9,2c0.8,1.3,1.5,3,2.3,4.9s1.7,3.8,2.8,5.8c1,1.9,2.4,3.5,4.1,4.8s3.8,1.9,6.3,1.9c3.7,0,7.3-1.5,10.7-4.6
	c2.7-2.5,5.5-6.2,8.2-11.2c0.1-0.1,0.3-0.2,0.4-0.4c2.7-5.3,5.4-10.7,8.7-15.7c2-3,4.3-5.8,7.2-7.9c9.3-6.8,21.3-7.6,32.4-7.9
	c6.7-0.2,13.5-0.6,20.2-0.5c7.6,0.1,15.1,0.9,22.7,0.9c9,0,18.1-1.4,26-5.5c2,2.2,4.2,4,6.8,5.4c11.3,6.1,24.9,3.3,36.2-1
	c22.1-8.3,40.5-25,53.1-44.7c1.7-2.6,3.3-5.3,4.8-8.1C460.7,6.3,458.7,5.2,458,6.4z M67.3,74.3c-0.2-3-0.3-6-0.3-9.1
	c0-8.1,0.7-14.7,2.1-19.8c1.4-5,3.1-8.7,5.2-11c2.1-2.3,4.1-3.4,6.2-3.4c1.6,0,2.7,0.7,3.4,2s1.1,3.2,1.1,5.5
	c0,3.9-0.9,8.4-2.6,13.5c-1.7,5.1-3.8,10.3-6.4,15.6c-2.6,5.3-5.2,10.4-7.8,15.2C67.9,80.1,67.6,77.3,67.3,74.3z M354.3,41.5
	c-1.1-5.2-0.8-11.1,2.1-15.6c2.3-3.5,6.6-6.9,11.1-5.8c5.2,1.3,6.9,7.8,6.7,12.5c-0.2,6-3.4,11.4-7.6,15.5c-2.1,2-4.4,3.7-6.9,5.1
	C357,49.7,355.2,45.7,354.3,41.5z"/>
</svg>
